<svg width="26" height="32" viewBox="0 0 26 32" fill="none" xmlns="http://www.w3.org/2000/svg">
<path d="M15.7631 9.03779C16.7145 9.03866 17.6551 9.24525 18.5234 9.64399C19.3917 10.0428 20.1683 10.6248 20.8026 11.3521L22.7883 9.51609C21.5173 8.06644 19.8497 7.04336 18.0032 6.58043C16.1568 6.11745 14.2172 6.23609 12.4374 6.92084C10.6576 7.60559 9.12043 8.82465 8.02642 10.4189C6.93236 12.0132 6.33231 13.9087 6.30448 15.8581C6.27665 17.8074 6.82239 19.7202 7.87044 21.3466C8.91854 22.973 10.4203 24.2377 12.1797 24.9756C13.9391 25.7135 15.8746 25.8903 17.7335 25.483C19.5924 25.0756 21.2884 24.1031 22.6003 22.6922L20.6597 20.8022C19.8866 21.6313 18.9253 22.2511 17.8617 22.606C16.7981 22.961 15.6652 23.0401 14.5645 22.8363C13.4638 22.6325 12.4295 22.1522 11.554 21.4382C10.6785 20.7242 9.98918 19.7988 9.54763 18.7448C9.10603 17.6908 8.92596 16.541 9.02351 15.3982C9.12111 14.2554 9.49323 13.1552 10.1067 12.1959C10.7201 11.2367 11.5558 10.4483 12.5389 9.9012C13.5221 9.3541 14.6221 9.06542 15.7406 9.06091L15.7631 9.03779Z" fill="#64748B"/>
<path d="M6.78787 6.7439L4.8288 4.84848C3.29837 6.31039 2.08397 8.04809 1.25527 9.96183C0.426618 11.8755 0 13.9276 0 16C0 18.0724 0.426618 20.1244 1.25527 22.0381C2.08397 23.9519 3.29837 25.6896 4.8288 27.1515L6.78787 25.2561C5.5119 24.0457 4.49886 22.6044 3.80741 21.0155C3.11602 19.4267 2.76 17.7219 2.76 16C2.76 14.2781 3.11602 12.5733 3.80741 10.9845C4.49886 9.39558 5.5119 7.95422 6.78787 6.7439Z" fill="#64748B"/>
<path d="M25.2125 3.13955C22.5413 1.09587 19.3136 -0.00415788 16.0004 1.18104e-05V2.75196C18.7342 2.74934 21.398 3.65339 23.6065 5.33334L25.2125 3.13955Z" fill="#64748B"/>
<path d="M16.0004 29.2851V32C19.0996 32.0035 22.1326 31.0998 24.7276 29.3998L23.2032 27.1515C21.0588 28.5474 18.5566 29.2886 16.0004 29.2851Z" fill="#64748B"/>
<path d="M16 25.932C13.9005 25.9306 11.8521 25.3028 10.1322 24.1334C8.41216 22.964 7.10366 21.3095 6.38366 19.3939L3.87878 20.5238C4.82206 22.9026 6.48509 24.9481 8.64882 26.3909C10.8125 27.8336 13.3755 28.6059 16 28.606V25.932Z" fill="#64748B"/>
<path d="M6.06834 15.5152C6.23096 12.9646 7.34776 10.5721 9.19207 8.82299C11.0364 7.07395 13.4701 6.09931 15.9995 6.09683V3.39395C12.7604 3.39385 9.64521 4.65213 7.29869 6.90837C4.95217 9.16466 3.55392 12.2462 3.39343 15.5152H6.06834Z" fill="#64748B"/>
</svg>
