<svg width="28" height="32" viewBox="0 0 28 32" fill="none" xmlns="http://www.w3.org/2000/svg">
<path d="M13.9785 3.11148L19.296 6.18212L21.9921 4.62978L13.9785 0L0.593018 7.73445L3.27556 9.28679L13.9785 3.11148Z" fill="#64748B"/>
<path d="M24.6767 6.18213L13.9805 12.3574L8.66311 9.2868L5.97375 10.8391L13.9805 15.4621L27.3729 7.73447L24.6767 6.18213Z" fill="#64748B"/>
<path d="M2.74612 16.572L0.0567627 15.0196V24.2656L13.4423 32V28.8953L2.74612 22.7132V16.572Z" fill="#64748B"/>
<path d="M0.0567627 11.9148L10.7529 18.0901V24.2314L13.4423 25.7905V16.5378L0.0567627 8.81012V11.9148Z" fill="#64748B"/>
<path d="M22.5325 15.0195V11.9149L14.5189 16.5378V31.9999L17.2083 30.4476V18.0902L22.5325 15.0195Z" fill="#64748B"/>
<path d="M25.2144 10.3625V22.7131L19.897 25.7905V28.8952L27.9106 24.2654V8.81012L25.2144 10.3625Z" fill="#64748B"/>
</svg>
