<svg width="33" height="32" viewBox="0 0 33 32" fill="none" xmlns="http://www.w3.org/2000/svg">
<path d="M5.025 6.0672L0.0574951 11.0347L5.025 16.0022L9.9925 11.0347L5.025 6.0672Z" fill="#64748B"/>
<path d="M10.0009 11.0325L5.03155 6.06314C6.34845 7.38052 7.08825 9.16701 7.08825 11.0297C7.08825 12.8925 6.34845 14.679 5.03155 15.9963L0.0621338 20.9602L5.03155 25.9296L10.0009 20.9602L14.9703 15.9963L10.0009 11.0325Z" fill="#CBD5E1"/>
<path d="M27.0848 25.9403L32.0522 20.9728L27.0848 16.0053L22.1173 20.9728L27.0848 25.9403Z" fill="#64748B"/>
<path d="M22.1178 20.9713L27.0873 25.9351C25.7703 24.6178 25.0306 22.8313 25.0306 20.9685C25.0306 19.1058 25.7703 17.3193 27.0873 16.0019L32.0567 11.0325L27.0873 6.06314L22.1178 11.0325L17.1541 16.0019L22.1178 20.9713Z" fill="#CBD5E1"/>
<path d="M6.12415 27.0325L11.0916 32L16.0591 27.0325L11.0916 22.065L6.12415 27.0325Z" fill="#64748B"/>
<path d="M11.0921 22.0575L6.12268 27.0269C7.44006 25.71 9.22651 24.9702 11.0893 24.9702C12.952 24.9702 14.7385 25.71 16.0558 27.0269L21.0197 31.9964L25.9891 27.0269L21.0197 22.0575L16.0558 17.0937L11.0921 22.0575Z" fill="#CBD5E1"/>
<path d="M25.998 4.96754L21.0305 0L16.063 4.9675L21.0305 9.93504L25.998 4.96754Z" fill="#64748B"/>
<path d="M21.0308 9.94053L25.9947 4.97115C24.6773 6.28805 22.8908 7.02786 21.0281 7.02786C19.1653 7.02786 17.3788 6.28805 16.0614 4.97115L11.0921 0.0017395L6.12268 4.97115L11.0921 9.94053L16.0614 14.9099L21.0308 9.94053Z" fill="#CBD5E1"/>
</svg>
