<svg width="103" height="35" viewBox="0 0 103 35" fill="none" xmlns="http://www.w3.org/2000/svg">
<path d="M21.0001 11.5312L18.5001 11.5312C18.3031 11.5312 18.108 11.57 17.926 11.6454C17.7441 11.7208 17.5787 11.8312 17.4393 11.9705C17.3001 12.1099 17.1896 12.2753 17.1142 12.4572C17.0388 12.6392 17 12.8343 17 13.0312L17 18.5313C16.5 20.5308 16.4065 21.1247 15 22.5313C13.5935 23.9378 12.4892 25.0312 10.5 25.0313C9.51511 25.0313 8.90995 24.9082 8 24.5312C7.09004 24.1543 6.19645 23.2277 5.5 22.5313C4.80356 21.8348 4.87691 21.9412 4.5 21.0312C4.12309 20.1213 4.00003 19.5162 4.00004 18.5312L4.00004 13.0317C4.0001 12.8347 3.96134 12.6395 3.88599 12.4575C3.81063 12.2755 3.70015 12.11 3.56086 11.9707C3.42155 11.8314 3.25617 11.7209 3.07415 11.6454C2.89214 11.57 2.69705 11.5312 2.50002 11.5312L-7.43095e-07 11.5312L-4.15255e-07 18.0313C-3.55061e-07 19.4102 0.271592 20.7756 0.799269 22.0495C1.32695 23.3234 2.10038 24.4809 3.07539 25.4559C4.05042 26.4309 5.20793 27.2044 6.48186 27.732C7.75578 28.2597 9.12116 28.5313 10.5 28.5312C13.2848 28.5312 15.9555 27.425 17.9247 25.4559C19.8938 23.4868 21.0001 20.8161 21.0001 18.0313L21.0001 11.5312Z" fill="#EA580C"/>
<circle cx="4.5" cy="10.9688" r="4.5" fill="#0F172A"/>
<path d="M33.0314 11.0938V14.2812H23.1876V11.0938H33.0314ZM25.6251 6.92188H30.1251V22.9062C30.1251 23.3958 30.1876 23.7708 30.3126 24.0312C30.448 24.2917 30.646 24.474 30.9064 24.5781C31.1668 24.6719 31.4949 24.7188 31.8907 24.7188C32.172 24.7188 32.422 24.7083 32.6407 24.6875C32.8699 24.6562 33.0626 24.625 33.2189 24.5938L33.2345 27.9062C32.8491 28.0312 32.4324 28.1302 31.9845 28.2031C31.5366 28.276 31.0418 28.3125 30.5001 28.3125C29.5105 28.3125 28.646 28.151 27.9064 27.8281C27.1772 27.4948 26.6147 26.9635 26.2189 26.2344C25.823 25.5052 25.6251 24.5469 25.6251 23.3594V6.92188ZM43.3751 28.3125C42.0626 28.3125 40.8855 28.1042 39.8439 27.6875C38.8022 27.2604 37.9168 26.6719 37.1876 25.9219C36.4689 25.1719 35.9168 24.3021 35.5314 23.3125C35.146 22.3125 34.9532 21.25 34.9532 20.125V19.5C34.9532 18.2188 35.1355 17.0469 35.5001 15.9844C35.8647 14.9219 36.3855 14 37.0626 13.2188C37.7501 12.4375 38.5835 11.8385 39.5626 11.4219C40.5418 10.9948 41.646 10.7812 42.8751 10.7812C44.073 10.7812 45.1355 10.9792 46.0626 11.375C46.9897 11.7708 47.7657 12.3333 48.3907 13.0625C49.0262 13.7917 49.5053 14.6667 49.8282 15.6875C50.1512 16.6979 50.3126 17.8229 50.3126 19.0625V20.9375H36.8751V17.9375H45.8907V17.5938C45.8907 16.9688 45.7762 16.4115 45.547 15.9219C45.3282 15.4219 44.9949 15.026 44.547 14.7344C44.0991 14.4427 43.5262 14.2969 42.8282 14.2969C42.2345 14.2969 41.7241 14.4271 41.297 14.6875C40.8699 14.9479 40.521 15.3125 40.2501 15.7812C39.9897 16.25 39.7918 16.8021 39.6564 17.4375C39.5314 18.0625 39.4689 18.75 39.4689 19.5V20.125C39.4689 20.8021 39.5626 21.4271 39.7501 22C39.948 22.5729 40.2241 23.0677 40.5782 23.4844C40.9428 23.901 41.3803 24.224 41.8907 24.4531C42.4116 24.6823 43.0001 24.7969 43.6564 24.7969C44.4689 24.7969 45.2241 24.6406 45.922 24.3281C46.6303 24.0052 47.2397 23.5208 47.7501 22.875L49.9376 25.25C49.5835 25.7604 49.0991 26.25 48.4845 26.7188C47.8803 27.1875 47.1512 27.5729 46.297 27.875C45.4428 28.1667 44.4689 28.3125 43.3751 28.3125ZM62.0001 24.1875V16.6562C62.0001 16.1146 61.9116 15.651 61.7345 15.2656C61.5574 14.8698 61.2814 14.5625 60.9064 14.3438C60.5418 14.125 60.0678 14.0156 59.4845 14.0156C58.9845 14.0156 58.5522 14.1042 58.1876 14.2812C57.823 14.4479 57.5418 14.6927 57.3439 15.0156C57.146 15.3281 57.047 15.6979 57.047 16.125H52.547C52.547 15.4062 52.7137 14.724 53.047 14.0781C53.3803 13.4323 53.8647 12.8646 54.5001 12.375C55.1355 11.875 55.8907 11.4844 56.7657 11.2031C57.6512 10.9219 58.6407 10.7812 59.7345 10.7812C61.047 10.7812 62.2137 11 63.2345 11.4375C64.2553 11.875 65.0574 12.5312 65.6407 13.4062C66.2345 14.2812 66.5314 15.375 66.5314 16.6875V23.9219C66.5314 24.849 66.5887 25.6094 66.7032 26.2031C66.8178 26.7865 66.9845 27.2969 67.2032 27.7344V28H62.6564C62.4376 27.5417 62.271 26.9688 62.1564 26.2812C62.0522 25.5833 62.0001 24.8854 62.0001 24.1875ZM62.5939 17.7031L62.6251 20.25H60.1095C59.5157 20.25 59.0001 20.3177 58.5626 20.4531C58.1251 20.5885 57.7657 20.7812 57.4845 21.0312C57.2032 21.2708 56.9949 21.5521 56.8595 21.875C56.7345 22.1979 56.672 22.5521 56.672 22.9375C56.672 23.3229 56.7605 23.6719 56.9376 23.9844C57.1147 24.2865 57.3699 24.526 57.7032 24.7031C58.0366 24.8698 58.4272 24.9531 58.8751 24.9531C59.5522 24.9531 60.1407 24.8177 60.6407 24.5469C61.1407 24.276 61.5262 23.9427 61.797 23.5469C62.0782 23.151 62.2241 22.776 62.2345 22.4219L63.422 24.3281C63.2553 24.7552 63.0262 25.1979 62.7345 25.6562C62.4532 26.1146 62.0939 26.5469 61.6564 26.9531C61.2189 27.349 60.6928 27.6771 60.0782 27.9375C59.4637 28.1875 58.7345 28.3125 57.8907 28.3125C56.8178 28.3125 55.8439 28.099 54.9689 27.6719C54.1043 27.2344 53.4168 26.6354 52.9064 25.875C52.4064 25.1042 52.1564 24.2292 52.1564 23.25C52.1564 22.3646 52.323 21.5781 52.6564 20.8906C52.9897 20.2031 53.4793 19.625 54.1251 19.1562C54.7814 18.6771 55.5991 18.3177 56.5782 18.0781C57.5574 17.8281 58.6928 17.7031 59.9845 17.7031H62.5939ZM76.9845 24.7969C77.5366 24.7969 78.0262 24.6927 78.4532 24.4844C78.8803 24.2656 79.2137 23.9635 79.4532 23.5781C79.7032 23.1823 79.8335 22.7188 79.8439 22.1875H84.0782C84.0678 23.375 83.7501 24.4323 83.1251 25.3594C82.5001 26.276 81.6616 27 80.6095 27.5312C79.5574 28.0521 78.3803 28.3125 77.0782 28.3125C75.7657 28.3125 74.6199 28.0938 73.6407 27.6562C72.672 27.2188 71.8647 26.6146 71.2189 25.8438C70.573 25.0625 70.0887 24.1562 69.7657 23.125C69.4428 22.0833 69.2814 20.9688 69.2814 19.7812V19.3281C69.2814 18.1302 69.4428 17.0156 69.7657 15.9844C70.0887 14.9427 70.573 14.0365 71.2189 13.2656C71.8647 12.4844 72.672 11.875 73.6407 11.4375C74.6095 11 75.7449 10.7812 77.047 10.7812C78.4324 10.7812 79.646 11.0469 80.6876 11.5781C81.7397 12.1094 82.5626 12.8698 83.1564 13.8594C83.7605 14.8385 84.0678 16 84.0782 17.3438H79.8439C79.8335 16.7812 79.7137 16.2708 79.4845 15.8125C79.2657 15.3542 78.9428 14.9896 78.5157 14.7188C78.0991 14.4375 77.5835 14.2969 76.9689 14.2969C76.3126 14.2969 75.7762 14.4375 75.3595 14.7188C74.9428 14.9896 74.6199 15.3646 74.3907 15.8438C74.1616 16.3125 74.0001 16.849 73.9064 17.4531C73.823 18.0469 73.7814 18.6719 73.7814 19.3281V19.7812C73.7814 20.4375 73.823 21.0677 73.9064 21.6719C73.9897 22.276 74.146 22.8125 74.3751 23.2812C74.6147 23.75 74.9428 24.1198 75.3595 24.3906C75.7762 24.6615 76.3178 24.7969 76.9845 24.7969ZM91.0782 4V28H86.5782V4H91.0782ZM90.4376 18.9531H89.2032C89.2137 17.776 89.3699 16.6927 89.672 15.7031C89.9741 14.7031 90.4064 13.8385 90.9689 13.1094C91.5314 12.3698 92.2032 11.7969 92.9845 11.3906C93.7762 10.9844 94.6512 10.7812 95.6095 10.7812C96.4428 10.7812 97.198 10.901 97.8751 11.1406C98.5626 11.3698 99.1512 11.7448 99.6407 12.2656C100.141 12.776 100.526 13.4479 100.797 14.2812C101.068 15.1146 101.203 16.125 101.203 17.3125V28H96.672V17.2812C96.672 16.5312 96.5626 15.9427 96.3439 15.5156C96.1355 15.0781 95.8282 14.7708 95.422 14.5938C95.0262 14.4062 94.5366 14.3125 93.9532 14.3125C93.3074 14.3125 92.7553 14.4323 92.297 14.6719C91.8491 14.9115 91.4897 15.2448 91.2189 15.6719C90.948 16.0885 90.7501 16.5781 90.6251 17.1406C90.5001 17.7031 90.4376 18.3073 90.4376 18.9531Z" fill="#0F172A"/>
</svg>
