<svg width="361" height="36" viewBox="0 0 361 36" fill="none" xmlns="http://www.w3.org/2000/svg">
<path d="M21.0001 12.3247L18.5001 12.3247C18.3031 12.3247 18.108 12.3635 17.926 12.4389C17.7441 12.5142 17.5787 12.6247 17.4393 12.764C17.3001 12.9034 17.1896 13.0687 17.1142 13.2506C17.0388 13.4327 17 13.6277 17 13.8247L17 19.3247C16.5 21.3243 16.4065 21.9182 15 23.3247C13.5935 24.7312 12.4892 25.8247 10.5 25.8247C9.51511 25.8247 8.90995 25.7016 8 25.3247C7.09004 24.9478 6.19645 24.0212 5.5 23.3247C4.80356 22.6283 4.87691 22.7347 4.5 21.8247C4.12309 20.9148 4.00003 20.3096 4.00004 19.3247L4.00004 13.8252C4.0001 13.6282 3.96134 13.433 3.88599 13.251C3.81063 13.069 3.70015 12.9035 3.56086 12.7642C3.42155 12.6248 3.25617 12.5143 3.07415 12.4389C2.89214 12.3635 2.69705 12.3247 2.50002 12.3247L-7.43095e-07 12.3247L-4.15255e-07 18.8248C-3.55061e-07 20.2037 0.271592 21.569 0.799269 22.843C1.32695 24.1169 2.10038 25.2744 3.07539 26.2494C4.05042 27.2244 5.20793 27.9978 6.48186 28.5255C7.75578 29.0531 9.12116 29.3247 10.5 29.3247C13.2848 29.3247 15.9555 28.2185 17.9247 26.2494C19.8938 24.2802 21.0001 21.6095 21.0001 18.8248L21.0001 12.3247Z" fill="#EA580C"/>
<circle cx="4.5" cy="11.7622" r="4.5" fill="white"/>
<path d="M33.0314 11.8872V15.0747H23.1876V11.8872H33.0314ZM25.6251 7.71533H30.1251V23.6997C30.1251 24.1893 30.1876 24.5643 30.3126 24.8247C30.448 25.0851 30.646 25.2674 30.9064 25.3716C31.1668 25.4653 31.4949 25.5122 31.8907 25.5122C32.172 25.5122 32.422 25.5018 32.6407 25.481C32.8699 25.4497 33.0626 25.4185 33.2189 25.3872L33.2345 28.6997C32.8491 28.8247 32.4324 28.9237 31.9845 28.9966C31.5366 29.0695 31.0418 29.106 30.5001 29.106C29.5105 29.106 28.646 28.9445 27.9064 28.6216C27.1772 28.2882 26.6147 27.757 26.2189 27.0278C25.823 26.2987 25.6251 25.3403 25.6251 24.1528V7.71533ZM43.3751 29.106C42.0626 29.106 40.8855 28.8976 39.8439 28.481C38.8022 28.0539 37.9168 27.4653 37.1876 26.7153C36.4689 25.9653 35.9168 25.0955 35.5314 24.106C35.146 23.106 34.9532 22.0435 34.9532 20.9185V20.2935C34.9532 19.0122 35.1355 17.8403 35.5001 16.7778C35.8647 15.7153 36.3855 14.7935 37.0626 14.0122C37.7501 13.231 38.5835 12.632 39.5626 12.2153C40.5418 11.7882 41.646 11.5747 42.8751 11.5747C44.073 11.5747 45.1355 11.7726 46.0626 12.1685C46.9897 12.5643 47.7657 13.1268 48.3907 13.856C49.0262 14.5851 49.5053 15.4601 49.8282 16.481C50.1512 17.4914 50.3126 18.6164 50.3126 19.856V21.731H36.8751V18.731H45.8907V18.3872C45.8907 17.7622 45.7762 17.2049 45.547 16.7153C45.3282 16.2153 44.9949 15.8195 44.547 15.5278C44.0991 15.2362 43.5262 15.0903 42.8282 15.0903C42.2345 15.0903 41.7241 15.2205 41.297 15.481C40.8699 15.7414 40.521 16.106 40.2501 16.5747C39.9897 17.0435 39.7918 17.5955 39.6564 18.231C39.5314 18.856 39.4689 19.5435 39.4689 20.2935V20.9185C39.4689 21.5955 39.5626 22.2205 39.7501 22.7935C39.948 23.3664 40.2241 23.8612 40.5782 24.2778C40.9428 24.6945 41.3803 25.0174 41.8907 25.2466C42.4116 25.4757 43.0001 25.5903 43.6564 25.5903C44.4689 25.5903 45.2241 25.4341 45.922 25.1216C46.6303 24.7987 47.2397 24.3143 47.7501 23.6685L49.9376 26.0435C49.5835 26.5539 49.0991 27.0435 48.4845 27.5122C47.8803 27.981 47.1512 28.3664 46.297 28.6685C45.4428 28.9601 44.4689 29.106 43.3751 29.106ZM62.0001 24.981V17.4497C62.0001 16.908 61.9116 16.4445 61.7345 16.0591C61.5574 15.6632 61.2814 15.356 60.9064 15.1372C60.5418 14.9185 60.0678 14.8091 59.4845 14.8091C58.9845 14.8091 58.5522 14.8976 58.1876 15.0747C57.823 15.2414 57.5418 15.4862 57.3439 15.8091C57.146 16.1216 57.047 16.4914 57.047 16.9185H52.547C52.547 16.1997 52.7137 15.5174 53.047 14.8716C53.3803 14.2257 53.8647 13.658 54.5001 13.1685C55.1355 12.6685 55.8907 12.2778 56.7657 11.9966C57.6512 11.7153 58.6407 11.5747 59.7345 11.5747C61.047 11.5747 62.2137 11.7935 63.2345 12.231C64.2553 12.6685 65.0574 13.3247 65.6407 14.1997C66.2345 15.0747 66.5314 16.1685 66.5314 17.481V24.7153C66.5314 25.6424 66.5887 26.4028 66.7032 26.9966C66.8178 27.5799 66.9845 28.0903 67.2032 28.5278V28.7935H62.6564C62.4376 28.3351 62.271 27.7622 62.1564 27.0747C62.0522 26.3768 62.0001 25.6789 62.0001 24.981ZM62.5939 18.4966L62.6251 21.0435H60.1095C59.5157 21.0435 59.0001 21.1112 58.5626 21.2466C58.1251 21.382 57.7657 21.5747 57.4845 21.8247C57.2032 22.0643 56.9949 22.3455 56.8595 22.6685C56.7345 22.9914 56.672 23.3455 56.672 23.731C56.672 24.1164 56.7605 24.4653 56.9376 24.7778C57.1147 25.0799 57.3699 25.3195 57.7032 25.4966C58.0366 25.6632 58.4272 25.7466 58.8751 25.7466C59.5522 25.7466 60.1407 25.6112 60.6407 25.3403C61.1407 25.0695 61.5262 24.7362 61.797 24.3403C62.0782 23.9445 62.2241 23.5695 62.2345 23.2153L63.422 25.1216C63.2553 25.5487 63.0262 25.9914 62.7345 26.4497C62.4532 26.908 62.0939 27.3403 61.6564 27.7466C61.2189 28.1424 60.6928 28.4705 60.0782 28.731C59.4637 28.981 58.7345 29.106 57.8907 29.106C56.8178 29.106 55.8439 28.8924 54.9689 28.4653C54.1043 28.0278 53.4168 27.4289 52.9064 26.6685C52.4064 25.8976 52.1564 25.0226 52.1564 24.0435C52.1564 23.158 52.323 22.3716 52.6564 21.6841C52.9897 20.9966 53.4793 20.4185 54.1251 19.9497C54.7814 19.4705 55.5991 19.1112 56.5782 18.8716C57.5574 18.6216 58.6928 18.4966 59.9845 18.4966H62.5939ZM76.9845 25.5903C77.5366 25.5903 78.0262 25.4862 78.4532 25.2778C78.8803 25.0591 79.2137 24.757 79.4532 24.3716C79.7032 23.9757 79.8335 23.5122 79.8439 22.981H84.0782C84.0678 24.1685 83.7501 25.2257 83.1251 26.1528C82.5001 27.0695 81.6616 27.7935 80.6095 28.3247C79.5574 28.8455 78.3803 29.106 77.0782 29.106C75.7657 29.106 74.6199 28.8872 73.6407 28.4497C72.672 28.0122 71.8647 27.408 71.2189 26.6372C70.573 25.856 70.0887 24.9497 69.7657 23.9185C69.4428 22.8768 69.2814 21.7622 69.2814 20.5747V20.1216C69.2814 18.9237 69.4428 17.8091 69.7657 16.7778C70.0887 15.7362 70.573 14.8299 71.2189 14.0591C71.8647 13.2778 72.672 12.6685 73.6407 12.231C74.6095 11.7935 75.7449 11.5747 77.047 11.5747C78.4324 11.5747 79.646 11.8403 80.6876 12.3716C81.7397 12.9028 82.5626 13.6632 83.1564 14.6528C83.7605 15.632 84.0678 16.7935 84.0782 18.1372H79.8439C79.8335 17.5747 79.7137 17.0643 79.4845 16.606C79.2657 16.1476 78.9428 15.783 78.5157 15.5122C78.0991 15.231 77.5835 15.0903 76.9689 15.0903C76.3126 15.0903 75.7762 15.231 75.3595 15.5122C74.9428 15.783 74.6199 16.158 74.3907 16.6372C74.1616 17.106 74.0001 17.6424 73.9064 18.2466C73.823 18.8403 73.7814 19.4653 73.7814 20.1216V20.5747C73.7814 21.231 73.823 21.8612 73.9064 22.4653C73.9897 23.0695 74.146 23.606 74.3751 24.0747C74.6147 24.5435 74.9428 24.9132 75.3595 25.1841C75.7762 25.4549 76.3178 25.5903 76.9845 25.5903ZM91.0782 4.79346V28.7935H86.5782V4.79346H91.0782ZM90.4376 19.7466H89.2032C89.2137 18.5695 89.3699 17.4862 89.672 16.4966C89.9741 15.4966 90.4064 14.632 90.9689 13.9028C91.5314 13.1632 92.2032 12.5903 92.9845 12.1841C93.7762 11.7778 94.6512 11.5747 95.6095 11.5747C96.4428 11.5747 97.198 11.6945 97.8751 11.9341C98.5626 12.1632 99.1512 12.5382 99.6407 13.0591C100.141 13.5695 100.526 14.2414 100.797 15.0747C101.068 15.908 101.203 16.9185 101.203 18.106V28.7935H96.672V18.0747C96.672 17.3247 96.5626 16.7362 96.3439 16.3091C96.1355 15.8716 95.8282 15.5643 95.422 15.3872C95.0262 15.1997 94.5366 15.106 93.9532 15.106C93.3074 15.106 92.7553 15.2257 92.297 15.4653C91.8491 15.7049 91.4897 16.0382 91.2189 16.4653C90.948 16.882 90.7501 17.3716 90.6251 17.9341C90.5001 18.4966 90.4376 19.1007 90.4376 19.7466Z" fill="white"/>
</svg>
