<svg width="35" height="32" viewBox="0 0 35 32" fill="none" xmlns="http://www.w3.org/2000/svg">
<path d="M11.3003 12.9922L6.1089 9.97403L0.910645 12.9922V19.0147L6.1089 22.026L11.3003 19.0147V12.9922ZM10.1824 18.367L6.1089 20.7236L2.03534 18.367V13.6399L6.1089 11.2764L10.1824 13.6399V18.367Z" fill="#64748B"/>
<path d="M22.5205 12.9853L17.5302 9.97403L12.5465 12.9853V19.0078L17.5302 22.026L22.5205 19.0078V12.9853Z" fill="#64748B"/>
<path d="M28.96 9.97403L23.7686 12.9922V19.0147L28.96 22.026L34.1582 19.0147V12.9922L28.96 9.97403ZM33.0336 18.367L28.96 20.7236L24.8864 18.367V13.6399L28.96 11.2764L33.0336 13.6399V18.367Z" fill="#64748B"/>
<path d="M6.72961 22.9662V28.9887L11.9347 32L17.1192 28.9887V22.9662L11.9347 19.948L6.72961 22.9662ZM15.9823 28.3617L11.9347 30.6976L7.82543 28.3617V23.6139L11.9347 21.2504L15.996 23.6139L15.9823 28.3617Z" fill="#64748B"/>
<path d="M17.9496 22.9662V28.9887L23.1409 32L28.3392 28.9887V22.9662L23.1409 19.948L17.9496 22.9662ZM27.2145 28.3617L23.1409 30.7183L19.0743 28.3617V23.6139L23.1409 21.2504L27.2145 23.6139V28.3617Z" fill="#64748B"/>
<path d="M17.1192 9.04067V2.99749L11.9416 0L6.72961 2.99749V9.02002L11.9416 12.052L17.1192 9.04067ZM7.82688 3.68657L11.9416 1.30236L15.9946 3.68657V8.41364L11.9416 10.7496L7.82688 8.39294V3.68657Z" fill="#64748B"/>
<path d="M28.3392 9.06137V3.01814L23.1409 0L17.9496 3.01814V9.04067L23.1409 12.052L28.3392 9.06137ZM19.0743 3.70722L23.1409 1.34371L27.2145 3.70722V8.43429L23.1409 10.7909L19.0743 8.43429V3.70722Z" fill="#64748B"/>
</svg>
