<svg width="30" height="32" viewBox="0 0 30 32" fill="none" xmlns="http://www.w3.org/2000/svg">
<path d="M14.6357 21.7861C13.7585 21.79 12.8927 21.5775 12.1096 21.166C11.3266 20.7544 10.6484 20.1557 10.1308 19.4188L6.52307 21.5744C6.66036 21.739 6.82288 21.8788 7.00411 21.9882L13.4239 25.8375C13.7991 26.0369 14.2144 26.1408 14.6357 26.1408C15.0571 26.1408 15.4723 26.0369 15.8476 25.8375L22.2674 21.9882C22.4486 21.8788 22.6111 21.739 22.7484 21.5744L19.15 19.3803C18.6354 20.1256 17.9576 20.7326 17.1725 21.151C16.3875 21.5694 15.5178 21.7871 14.6357 21.7861Z" fill="#64748B"/>
<path d="M8.98639 15.977C8.98968 14.6084 9.5216 13.289 10.4805 12.2709C11.4394 11.2528 12.758 10.6074 14.1842 10.4582V6.30984C13.9678 6.35275 13.7597 6.42721 13.567 6.5306L6.87448 10.2098C6.51072 10.4419 6.20825 10.7512 5.99079 11.1135C5.77328 11.4757 5.64667 11.881 5.62085 12.2978V19.6562C5.62382 19.8685 5.65952 20.0793 5.7269 20.2817L9.48789 18.2121C9.15901 17.5086 8.9882 16.7473 8.98639 15.977Z" fill="#64748B"/>
<path d="M22.4621 10.2073L16.1218 6.53046C15.9394 6.42712 15.7421 6.35271 15.5371 6.30984V10.4462C16.3985 10.5444 17.2249 10.8447 17.9498 11.323C18.6747 11.8012 19.2779 12.4441 19.7107 13.1997C20.1436 13.9554 20.394 14.8027 20.4419 15.6736C20.4897 16.5444 20.3337 17.4144 19.9863 18.2135L23.5493 20.2817C23.6131 20.0794 23.647 19.8688 23.6498 19.6566V12.303C23.6267 11.885 23.5074 11.4781 23.3013 11.1144C23.0951 10.7507 22.8079 10.4401 22.4621 10.2073Z" fill="#64748B"/>
<path d="M27.0796 6.52219L16.6129 0.468867C15.999 0.16054 15.3217 0 14.6349 0C13.9482 0 13.2709 0.16054 12.6571 0.468867L2.19027 6.52219C1.61576 6.89699 1.13743 7.40182 0.793811 7.9959C0.450239 8.58997 0.251073 9.25661 0.212402 9.94195V22.0485C0.250352 22.7354 0.449158 23.4036 0.79273 23.9993C1.1363 24.5951 1.61504 25.1015 2.19027 25.4778L12.6571 31.5313C13.2709 31.8395 13.9482 32 14.6349 32C15.3217 32 15.999 31.8395 16.6129 31.5313L27.0796 25.4778C27.6548 25.1015 28.1336 24.5951 28.4771 23.9993C28.8207 23.4036 29.0195 22.7354 29.0575 22.0485V9.94195C29.0188 9.25661 28.8196 8.58997 28.4761 7.9959C28.1324 7.40182 27.6541 6.89699 27.0796 6.52219ZM25.7357 20.656C25.705 21.1836 25.5512 21.6967 25.2866 22.154C25.022 22.6114 24.654 23.0002 24.2121 23.2896L16.1491 27.9503C15.6781 28.1884 15.1578 28.3125 14.6302 28.3125C14.1026 28.3125 13.5823 28.1884 13.1113 27.9503L5.05779 23.2896C4.61587 23.0002 4.24787 22.6114 3.98331 22.154C3.7187 21.6967 3.56487 21.1836 3.53414 20.656V11.344C3.56487 10.8164 3.7187 10.3033 3.98331 9.84599C4.24787 9.38862 4.61587 8.99971 5.05779 8.71045L13.1018 4.04971C13.5728 3.8116 14.0931 3.68753 14.6207 3.68753C15.1484 3.68753 15.6687 3.8116 16.1397 4.04971L24.2026 8.71045C24.6462 8.99867 25.0161 9.38713 25.2824 9.84455C25.5487 10.3019 25.704 10.8155 25.7357 11.344V20.656Z" fill="#64748B"/>
<path d="M10.5798 16C10.5798 16.7577 10.8177 17.4984 11.2634 18.1284C11.7091 18.7584 12.3427 19.2494 13.0839 19.5394C13.8251 19.8293 14.6407 19.9052 15.4276 19.7574C16.2144 19.6095 16.9372 19.2447 17.5044 18.7089C18.0717 18.1732 18.4581 17.4905 18.6146 16.7474C18.7711 16.0042 18.6908 15.234 18.3837 14.5339C18.0767 13.8339 17.5569 13.2356 16.8898 12.8146C16.2227 12.3937 15.4384 12.169 14.6362 12.169C13.5604 12.169 12.5286 12.5726 11.7679 13.2911C11.0072 14.0095 10.5798 14.984 10.5798 16Z" fill="#64748B"/>
</svg>
